<?xml version="1.0" encoding="UTF-8"?>
<svg id="Ebene_2" data-name="Ebene 2" xmlns="http://www.w3.org/2000/svg" viewBox="0 0 17.82 6.2">
  <defs>
    <style>
      .cls-1 {
        fill: #1a1a1a;
      }
    </style>
  </defs>
  <g id="Resume">
    <g id="RaAkfE">
      <path class="cls-1" d="M0,3.15c0-.59.12-1.1.39-1.57.26-.45.6-.81,1.04-1.09.33-.21.69-.36,1.07-.43.3-.06.6-.06.9-.04.33.03.65.12.95.25.21.09.41.21.59.35.06.04.1.04.15,0,.22-.17.46-.3.72-.41.29-.12.58-.19.9-.21.46-.03.91.02,1.35.19.27.1.53.24.76.42.06.05.11.05.17,0,.28-.22.6-.38.94-.49.41-.13.83-.15,1.25-.12.4.04.77.16,1.12.34.14.07.27.17.4.26.07.05.12.04.18,0,.2-.14.41-.27.64-.37.3-.13.61-.2.93-.23.4-.04.8,0,1.18.12.46.14.87.38,1.22.71.34.32.6.7.76,1.13.19.5.25,1.01.18,1.54-.12.87-.54,1.56-1.23,2.09-.38.29-.81.47-1.28.55-.32.05-.64.05-.97.01-.36-.04-.7-.16-1.02-.32-.15-.07-.29-.17-.42-.27-.05-.04-.1-.05-.15,0-.2.15-.42.28-.65.38-.32.14-.65.22-1,.24-.45.03-.89-.03-1.32-.19-.28-.11-.53-.25-.77-.43-.05-.04-.09-.04-.14,0-.44.33-.93.54-1.48.6-.51.06-1.01.02-1.49-.17-.26-.1-.51-.23-.73-.41-.07-.06-.12-.06-.2,0-.28.21-.58.37-.91.47-.43.14-.88.16-1.33.12-.24-.03-.47-.09-.7-.17-.27-.09-.51-.24-.74-.4-.34-.25-.62-.55-.83-.91C.14,4.2-.01,3.67,0,3.15ZM3.02,5.48c.19,0,.32,0,.45-.02.34-.07.66-.19.95-.38.09-.06.1-.08.03-.17-.03-.04-.06-.08-.08-.12-.19-.29-.32-.6-.4-.93-.08-.31-.1-.63-.08-.96.01-.29.08-.56.17-.84.09-.28.23-.54.41-.78.05-.07.03-.11-.04-.15-.12-.06-.23-.13-.35-.19-.21-.1-.43-.19-.67-.2-.33-.02-.66-.03-.99.08-.35.12-.66.28-.93.53-.54.51-.8,1.14-.76,1.89.02.46.17.88.44,1.25.47.64,1.11.96,1.84.98ZM14.73.73c-.49-.02-.92.15-1.32.4-.07.04-.1.08-.05.16.26.36.43.76.52,1.2.08.36.08.73.02,1.09-.08.49-.26.93-.55,1.33-.06.08-.01.11.04.14.18.12.37.22.57.28.15.05.3.11.46.11.33,0,.65.03.97-.08.25-.09.49-.18.69-.34.46-.34.78-.78.92-1.34.09-.33.09-.66.04-.99-.05-.36-.19-.7-.42-1-.48-.64-1.12-.96-1.91-.98ZM6.95,5.47c.21,0,.41,0,.61-.07.11-.04.23-.07.34-.12.15-.07.3-.14.43-.24.04-.03.06-.05.02-.11-.22-.31-.39-.65-.49-1.03-.12-.46-.13-.92-.05-1.38.08-.46.26-.88.54-1.25.05-.06.03-.08-.02-.11-.09-.06-.17-.12-.26-.16-.39-.2-.8-.29-1.24-.26-.45.02-.84.18-1.21.42-.06.04-.07.07-.02.13.37.53.58,1.11.58,1.76,0,.3-.02.6-.1.89-.1.36-.26.69-.48.99-.05.07-.03.1.03.14.41.26.85.43,1.33.41ZM10.88,5.47c.22.03.47-.03.71-.11.22-.07.43-.17.62-.31.05-.04.06-.06.02-.13-.11-.16-.21-.32-.29-.49-.2-.42-.3-.86-.29-1.33,0-.24.03-.48.08-.72.09-.4.26-.77.5-1.1.05-.07.03-.1-.03-.13-.22-.14-.45-.26-.7-.33-.43-.12-.86-.12-1.29,0-.09.03-.19.06-.27.1-.16.07-.31.14-.45.25-.04.03-.05.06-.01.1.09.13.17.25.24.39.17.33.28.68.33,1.05.06.44.02.88-.1,1.3-.09.32-.24.63-.45.9-.07.09-.03.12.04.17.4.26.83.42,1.35.4ZM9.33,3.11c0-.07-.01-.15-.02-.22-.03-.4-.16-.76-.38-1.1-.03-.04-.04-.04-.07,0-.09.13-.16.27-.22.41-.14.34-.19.7-.17,1.07.02.41.16.78.37,1.12.04.07.07.07.11,0,.24-.39.37-.82.37-1.28ZM5.46,3.1c-.01-.45-.13-.88-.38-1.27-.05-.08-.08-.08-.12,0-.1.19-.2.37-.26.58-.09.31-.13.63-.09.95.05.37.17.7.36,1.01.03.06.06.08.11,0,.24-.39.37-.82.38-1.28ZM13.22,3.11c-.01-.47-.13-.89-.37-1.28-.05-.08-.07-.08-.12,0-.18.27-.29.57-.34.89-.06.37-.03.74.08,1.1.06.2.15.38.26.55.05.08.07.09.12,0,.24-.39.35-.82.37-1.26Z"/>
    </g>
  </g>
</svg>