<?xml version="1.0" encoding="UTF-8"?>
<svg id="Ebene_2" data-name="Ebene 2" xmlns="http://www.w3.org/2000/svg" viewBox="0 0 13.96 14">
  <defs>
    <style>
      .cls-1 {
        fill: #1a1a1a;
      }
    </style>
  </defs>
  <g id="Resume">
    <g>
      <path id="path4139" class="cls-1" d="M1.16,14c-.24,0-.49-.08-.7-.23-.51-.39-.62-1.11-.23-1.63l4.4-5.85c.22-.29.56-.46.93-.46h2.81L11.82.53c.35-.54,1.07-.69,1.61-.34.54.35.69,1.07.34,1.61l-3.8,5.82c-.21.33-.58.53-.97.53h-2.86l-4.05,5.39c-.23.3-.58.46-.93.46h0Z"/>
      <path id="path4143" class="cls-1" d="M1.06,7.92c-.13,0-.27-.04-.38-.13-.28-.21-.34-.61-.13-.89l2.39-3.18c.12-.16.31-.25.51-.25h1.52l1.87-2.87c.19-.29.58-.38.88-.18.29.19.38.58.18.88l-2.06,3.16c-.12.18-.32.29-.53.29h-1.55l-2.2,2.92c-.12.17-.31.25-.51.25h0Z"/>
      <path id="path4147" class="cls-1" d="M1.13,4.44c-.07,0-.13-.02-.19-.06-.14-.1-.17-.3-.06-.44l1.24-1.65c.06-.08.15-.13.25-.13h.8l.98-1.5c.1-.15.29-.19.44-.09.15.1.19.29.09.44l-1.07,1.64c-.06.09-.16.14-.27.14h-.81l-1.15,1.53c-.06.08-.16.13-.25.13h0Z"/>
      <path id="path4151" class="cls-1" d="M7.74,10.5h-1s-.05.01-.07.03c-.02.02-.03.05-.03.07v2.08c0,.06.05.1.1.1s.1-.05.1-.1v-.94h.78c.06,0,.1-.05.1-.1s-.05-.1-.1-.1h-.78v-.83h.9c.06,0,.1-.05.1-.1s-.05-.1-.1-.1h0Z"/>
      <path id="path4153" class="cls-1" d="M9.73,10.5c-.06,0-.1.05-.1.1v.94h-1.35v-.94c0-.06-.05-.1-.1-.1s-.1.05-.1.1v2.08c0,.06.05.1.1.1s.1-.05.1-.1v-.94h1.35v.94c0,.06.05.1.1.1s.1-.05.1-.1v-2.08c0-.06-.05-.1-.1-.1Z"/>
      <path id="path4155" class="cls-1" d="M12.44,10.59s-.04-.08-.09-.08c-.05,0-.09.02-.11.06l-.81,1.86-.75-1.85s-.06-.07-.1-.06c-.05,0-.08.04-.09.08l-.44,2.07c-.01.06.02.11.08.12.06.01.11-.02.12-.08l.37-1.74.71,1.76s.05.06.09.06h0s.08-.02.1-.06l.77-1.77.32,1.74c0,.06.06.09.12.08.06-.01.09-.06.08-.12l-.38-2.07h0Z"/>
      <path id="path4157" class="cls-1" d="M6.11,12.61h-3.19l-.16.21h3.35c.06,0,.11-.05.11-.11s-.05-.11-.11-.11Z"/>
      <path id="path4159" class="cls-1" d="M12.69,3.64v6.36c0,.06.05.11.11.11s.11-.05.11-.11V3.32l-.21.32h0Z"/>
      <path id="path4161" class="cls-1" d="M8.07,1.06c-.01.07-.03.14-.07.21h3.21l.14-.21h-3.28Z"/>
      <path id="path4163" class="cls-1" d="M1.27,7.96v2.62l.21-.28v-2.45c-.06.05-.14.08-.21.11h0Z"/>
      <path id="path4167" class="cls-1" d="M1.48,3.07v-1.81h2.23l.14-.21H1.37c-.06,0-.11.05-.11.11v2.19l.21-.28Z"/>
      <path id="path4169" class="cls-1" d="M1.41,4.33c-.04.05-.09.09-.15.11v1.4l.21-.28v-1.32l-.07.09h0Z"/>
      <polygon id="polygon4171" class="cls-1" points="4.69 1.06 4.55 1.27 6.33 1.27 6.47 1.06 4.69 1.06"/>
    </g>
  </g>
</svg>