<?xml version="1.0" encoding="UTF-8"?>
<svg id="Ebene_2" data-name="Ebene 2" xmlns="http://www.w3.org/2000/svg" viewBox="0 0 11.39 4.48">
  <defs>
    <style>
      .cls-1 {
        fill: #f0f0f0;
      }
    </style>
  </defs>
  <g id="Ebene_2-2" data-name="Ebene 2">
    <g id="Resume">
      <g id="bguguD">
        <g>
          <path class="cls-1" d="M10.23,3.2c.38-.21.76-.42,1.16-.64v1.1c0,.07-.01.09-.09.09h-2.7c-.07,0-.09-.01-.09-.08v-.29c0-.05.01-.06.06-.06h.22c.05,0,.06-.02.06-.07v-1.39c0-.05-.01-.07-.07-.07h-.21c-.06,0-.07-.02-.07-.07v-.3c0-.05.02-.06.07-.06h1.9c.05,0,.07.01.06.06v.31s-.01.06-.06.06h-.21s-.06,0-.06.06v1.35h.03Z"/>
          <path class="cls-1" d="M1.7,3.19c.33-.18.65-.36.98-.54.05-.03.1-.06.18-.1v.34c.05.15.04.3,0,.44v.32c0,.07-.01.09-.09.09H.1c-.09,0-.11-.03-.1-.11v-.26c0-.06.02-.07.07-.07h.21s.06-.01.06-.06v-1.46c-.08-.02-.17,0-.26,0-.06,0-.08-.02-.07-.08v-.29c0-.07.02-.08.08-.08h1.85c.07,0,.09.02.09.09v.27c0,.08-.03.1-.09.09h-.13c-.08,0-.1.02-.1.1v1.19s-.02.08,0,.11h-.02Z"/>
          <path class="cls-1" d="M2.85,3.34v-.44l1.03-1.03c.07-.07.14-.13.2-.2.05-.06.08-.06.14,0,.32.33.65.65.97.97q.1.1.2,0c.14-.13.26-.28.41-.4v.44l-1.75,1.75c-.06.06-.1.08-.16,0-.04-.05-.13-.1-.13-.15s.08-.1.13-.15c.06-.07.17-.12.17-.19s-.11-.13-.17-.19c-.22-.22-.44-.44-.66-.67-.05-.05-.07-.05-.12,0-.09.09-.18.18-.27.26h.01Z"/>
          <path class="cls-1" d="M3.99,1.44c-.4,0-.72-.32-.72-.73s.33-.71.72-.71.72.33.72.73-.33.71-.73.71h0Z"/>
          <path class="cls-1" d="M8.47,2.44c-.03-.53-.37-1.09-1.11-1.08h-1.67c-.15,0-.22.07-.22.22s.07.22.21.21c.21,0,.05,0,.08,0,.04,0,.06.01.05.06v.38c-.04.15-.04.29,0,.44v.6s-.01.06-.05.06h-.23c-.05,0-.06.01-.06.06v.29c0,.07.02.08.08.08h1.89c.31,0,.56-.13.76-.37.22-.27.29-.59.27-.94h0ZM7.38,2.81c-.03.07-.07.13-.15.17-.15.07-.21.04-.21-.12v-.68c0-.07.03-.08.09-.07.17.01.28.14.31.34.02.12.01.25-.04.37h0Z"/>
        </g>
      </g>
    </g>
  </g>
</svg>