<?xml version="1.0" encoding="UTF-8"?>
<svg id="Ebene_2" data-name="Ebene 2" xmlns="http://www.w3.org/2000/svg" viewBox="0 0 16.51 5.71">
  <defs>
    <style>
      .cls-1 {
        fill: #1a1a1a;
      }
    </style>
  </defs>
  <g id="Resume">
    <g id="tCQPrT">
      <path class="cls-1" d="M0,4.09c.07-.44.14-.87.32-1.28C.96,1.36,2.02.38,3.61.08c1.41-.26,2.66.12,3.7,1.1.47.44.8.99,1.1,1.55.19.34.34.71.56,1.03.2.29.48.35.8.21.31-.14.55-.37.8-.59.25-.22.52-.42.8-.6.62-.39,1-.35,1.53.16.31.3.6.63.94.9.15.12.31.23.49.28.23.06.44.04.65-.08.71-.4,1-1.04,1.08-1.81.02-.22.03-.44.06-.66,0-.08,0-.2.13-.2.11,0,.13.1.15.19.15.78.13,1.55-.19,2.29-.2.46-.44.9-.8,1.26-.69.69-1.47.75-2.27.19-.38-.27-.7-.61-1.06-.9-.23-.18-.46-.2-.71-.05-.29.17-.55.38-.82.58-.29.21-.6.41-.93.57-.8.37-1.57.23-2.2-.38-.4-.39-.67-.87-.92-1.35-.27-.52-.53-1.05-.92-1.51-.39-.45-.85-.78-1.46-.86-.6-.08-1.15.1-1.64.42-1.1.71-1.7,1.73-1.89,3.02-.03.21-.05.41-.07.62-.01.11-.04.23-.17.24-.13.01-.16-.1-.2-.2-.1-.26-.11-.53-.17-.8v-.61Z"/>
    </g>
  </g>
</svg>