<?xml version="1.0" encoding="UTF-8"?>
<svg id="Ebene_2" data-name="Ebene 2" xmlns="http://www.w3.org/2000/svg" viewBox="0 0 13.42 9.94">
  <defs>
    <style>
      .cls-1 {
        fill: #1a1a1a;
      }
    </style>
  </defs>
  <g id="Resume">
    <g id="x7uN46">
      <g>
        <path class="cls-1" d="M5.46.93c.19-.77,1.1-1.17,1.78-.77.28.16.48.4.63.68.04.07.03.1-.06.1-.77,0-1.54,0-2.31,0-.01,0-.03,0-.04,0Z"/>
        <path class="cls-1" d="M4.62.96c-.18,0-.32-.13-.32-.31,0-.18.13-.31.31-.32.18,0,.32.13.32.31,0,.17-.14.32-.32.32Z"/>
        <path class="cls-1" d="M11.48.64c0,.18-.14.32-.31.32-.18,0-.32-.14-.32-.31,0-.18.14-.31.32-.32.18,0,.32.13.32.31Z"/>
        <path class="cls-1" d="M8.76.34c.18,0,.31.14.31.32,0,.18-.14.31-.32.31-.18,0-.31-.14-.31-.32,0-.18.13-.31.32-.31Z"/>
        <path class="cls-1" d="M2.52.64c0,.18-.12.32-.31.32-.18,0-.32-.13-.32-.31,0-.18.13-.32.31-.32.19,0,.32.12.32.31Z"/>
        <path class="cls-1" d="M13.3,8.72c.06.03.09.07.09.15,0,.16,0,.26-.01.32,0,.08-.04.1-.13.11-.06.01-.15.01-.29.01h-1.46s.09-.03.12-.03c.53,0,1.06,0,1.58,0,.11,0,.16-.03.15-.15,0-.06,0-.13,0-.19,0-.09,0-.16-.11-.19-.04-.01,0-.02.02-.03h0c-.1-.04-.15-.11-.15-.22,0-.22,0-.44,0-.66,0-.12.06-.21.2-.21.09,0,.09-.04.09-.11,0-.18,0-.35,0-.53,0-.06-.01-.1-.09-.1-.15,0-.21-.1-.21-.25,0-.2,0-.4,0-.6,0-.14.05-.23.2-.23.09,0,.09-.05.09-.11,0-.17,0-.34,0-.51,0-.08,0-.12-.1-.12-.13,0-.19-.09-.19-.21,0-.22,0-.43,0-.65,0-.13.06-.21.19-.21.09,0,.1-.04.1-.12,0-.18,0-.35,0-.53,0-.07-.01-.1-.1-.1-.12,0-.19-.07-.19-.19,0-.23,0-.46,0-.69,0-.09.04-.17.13-.17.2,0,.16-.13.16-.24,0-.09,0-.18,0-.26,0-.09-.02-.12-.11-.12-.61,0-1.21,0-1.82,0-.02-.01-.03-.03-.03-.04,0-.03,0-.07,0-.1q0-.23-.22-.23c-3.04,0-6.09,0-9.13,0-.07,0-.14-.02-.2.03,0,.06-.01.13,0,.19.02.14-.04.16-.17.16-.53,0-1.06,0-1.59,0-.04,0-.11-.02-.11.03,0,.18-.04.37.02.55,0-.03.01-.06.01-.1,0,.06.04.1.1.13.06.05.09.12.09.19,0,.22,0,.43,0,.65,0,.07-.01.16-.09.17-.17.03-.14.15-.14.27,0,.13,0,.26,0,.4,0,.07,0,.12.09.14.1.02.14.1.14.2,0,.22,0,.44,0,.66,0,.07-.02.16-.09.17-.18.03-.15.16-.15.27,0,.13,0,.26,0,.4,0,.06,0,.1.08.11.11.02.16.1.16.22,0,.21,0,.42,0,.63,0,.07,0,.17-.09.19-.18.03-.15.16-.15.28,0,.13,0,.25,0,.38,0,.07,0,.12.09.13.1.02.14.1.14.2,0,.22,0,.44,0,.66,0,.07-.02.16-.09.17-.17.03-.15.15-.14.27,0,.08,0,.17,0,.25-.01.12.03.15.14.15.53,0,1.06,0,1.59,0,.11,0,.17.02.16.15-.01.1,0,.2,0,.29-.01.13.03.17.16.17,3.09,0,6.17,0,9.26,0,.02,0,.05,0,.07,0,.07,0,.1-.02.09-.09,0-.12,0-.25,0-.37-.01-.12.02-.16.15-.15.56,0,1.12,0,1.68,0,.1,0,.13-.02.12-.12,0-.13,0-.26,0-.38,0-.1-.04-.12-.12-.1ZM.08,1.65s-.02.03-.03.05c0-.04.02-.06.06-.07-.01,0-.02.01-.03.02ZM1.89,2.4c0,.21,0,.42,0,.63,0,.15-.07.22-.22.22-.2,0-.4,0-.6,0-.13,0-.2-.07-.2-.2,0-.11,0-.23,0-.34,0-.11,0-.22,0-.32,0-.14.07-.21.21-.22.2,0,.4,0,.6,0,.14,0,.21.08.22.22ZM1.89,4.87c0,.12-.07.2-.19.2-.21,0-.43,0-.64,0-.12,0-.19-.08-.19-.2,0-.11,0-.22,0-.34,0-.11,0-.22,0-.34,0-.13.07-.2.2-.2.2,0,.41,0,.61,0,.12,0,.2.07.21.2,0,.22,0,.45,0,.67ZM1.71,1.62s-.02,0-.03,0c-.21,0-.42,0-.63,0,.22,0,.44,0,.66,0ZM1.05,1.62c-.21,0-.42,0-.63,0-.02,0-.03,0-.05,0,.23,0,.45,0,.68,0ZM1.75,9.31c-.52,0-1.04,0-1.56,0-.13,0-.17-.04-.16-.17.01-.12,0-.24,0-.36,0,0,.02,0,.03,0,0,.1,0,.2,0,.3q0,.19.2.19c.48,0,.96,0,1.44,0h.14s0,.01,0,.02c-.03,0-.07,0-.1,0ZM1.89,8.18c0,.1,0,.21,0,.31,0,.14-.08.22-.22.23-.2,0-.4,0-.6,0-.14,0-.21-.08-.21-.23,0-.21,0-.41,0-.62,0-.17.07-.23.23-.23.19,0,.38,0,.57,0,.14,0,.21.08.22.22,0,.05,0,.11,0,.16,0,.05,0,.11,0,.16h0ZM1.73,6.9s.06.03.02.03c-.25,0-.5,0-.75,0,0,0-.01,0-.01,0-.01-.03.02-.03.03-.03-.11-.05-.16-.13-.15-.25,0-.2,0-.4,0-.6,0-.16.06-.22.22-.22.19,0,.38,0,.57,0,.16,0,.23.07.23.24,0,.19,0,.38,0,.57,0,.13-.04.22-.16.27ZM9.25,2.17h0s-.06-.03-.01-.03c.47,0,.95,0,1.42,0,0,0,.02,0,.02,0,0,0-.02.01-.03.02.15.05.2.15.19.31,0,.17,0,.33,0,.5,0,.2-.08.28-.28.28-.41,0-.82,0-1.23,0-.18,0-.26-.08-.26-.26,0-.18,0-.35,0-.53,0-.15.05-.24.18-.3ZM10.84,4.25c0,.19,0,.37,0,.56,0,.18-.1.26-.28.26-.41,0-.81,0-1.22,0-.19,0-.28-.08-.28-.28,0-.18,0-.36,0-.54,0-.18.09-.26.27-.26.21,0,.42,0,.63,0,.21,0,.41,0,.62,0,.18,0,.26.08.27.26ZM8.15,7.64c.21,0,.28.07.29.28,0,.17,0,.34,0,.51,0,.21-.08.29-.28.29-.98,0-1.97,0-2.95,0-.19,0-.27-.08-.27-.27,0-.19,0-.37,0-.56,0-.19.07-.26.26-.26.5,0,1,0,1.5,0h0c.49,0,.98,0,1.47,0ZM8.21,8.76s0,0,0,.01h-3.04s0,0,0-.01h3.04ZM10.79,9.29s0,0,0,.01H2.57s0,0,0-.01h8.21ZM5.1,2.17s0,0,0,0c-.01,0-.05,0-.02-.03.02-.01.06,0,.09,0,1.01,0,2.03,0,3.04,0,.03,0,.07-.02.09.01,0,0,0,0,0,.01,0,0-.02,0-.03,0,.13.05.18.14.18.27,0,.18,0,.36,0,.54,0,.19-.08.27-.27.27-.99,0-1.98,0-2.97,0-.18,0-.26-.07-.27-.25,0-.19,0-.38,0-.57,0-.12.05-.22.17-.26ZM8.15,5.07c-.98,0-1.97,0-2.95,0-.19,0-.27-.07-.28-.26,0-.19,0-.38,0-.57,0-.18.08-.24.26-.25.5,0,1,0,1.5,0,.48,0,.97,0,1.45,0,.23,0,.3.06.3.29,0,.17,0,.34,0,.51,0,.19-.08.27-.28.27ZM8.21,5.76s0,0,0,.01h-3.07s0,0,0-.01h3.07ZM4.93,6.08c0-.2.07-.27.26-.27.99,0,1.98,0,2.97,0,.2,0,.27.07.28.27,0,.17,0,.34,0,.51,0,.15-.05.25-.2.3.01,0,.05,0,.02.03-.02.01-.06,0-.09,0-1,0-2.01,0-3.01,0-.01,0-.08.05-.05-.03-.13-.05-.18-.15-.18-.29,0-.18,0-.35,0-.53ZM2.65,2.19c.01-.06.06-.05.1-.05.45,0,.89,0,1.34,0,.1,0,.18.04.21.13.1.27.06.55.03.82,0,0-.01.02-.02.02,0,0-.02,0-.02-.01-.07.12-.17.16-.3.16-.39,0-.78,0-1.18,0-.21,0-.3-.08-.3-.29,0-.17,0-.33,0-.5,0-.12.03-.21.14-.27ZM4.3,4.27c0,.19,0,.37,0,.56,0,.16-.09.25-.25.25-.43,0-.85,0-1.28,0-.16,0-.25-.09-.25-.25,0-.2,0-.39,0-.59,0-.16.1-.24.27-.25.21,0,.42,0,.63,0,.2,0,.4,0,.6,0,.2,0,.28.08.28.27ZM2.52,6.08c0-.19.09-.27.27-.27.41,0,.82,0,1.23,0,.19,0,.27.08.28.28,0,.17,0,.33,0,.5,0,.16-.06.26-.21.31h0s.04,0,.06,0c0,0,0,.02-.01.02-.47,0-.94,0-1.42,0-.01,0-.02,0-.03-.01.01,0,.02-.01.03-.02-.15-.05-.21-.16-.2-.31,0-.17,0-.33,0-.5ZM2.52,7.9c0-.18.08-.27.26-.27.42,0,.84,0,1.26,0,.18,0,.26.08.26.26,0,.18,0,.36,0,.54,0,.19-.09.27-.29.28-.2,0-.4,0-.6,0-.2,0-.4,0-.6,0-.2,0-.29-.09-.29-.29,0-.18,0-.35,0-.53ZM10.73,9.48h0s.05.02.03.03c-.03.02-.08,0-.12,0-2.65,0-5.31,0-7.96,0-.05,0-.13.05-.14-.06-.04-.08-.04-.12.07-.12.36,0,.73,0,1.09,0h6.94s.04,0,.06,0c.05.01.12-.04.13.04.01.07-.06.08-.1.1ZM10.58,8.72c-.43,0-.85,0-1.28,0-.16,0-.24-.09-.24-.25,0-.2,0-.39,0-.59,0-.15.08-.23.24-.24.22,0,.43,0,.65,0h0c.21,0,.42,0,.63,0,.18,0,.25.08.26.26,0,.18,0,.36,0,.54,0,.18-.08.27-.25.27ZM10.65,6.9s0,0,0,0c0,0,.01,0,.01,0,0,0,.01.01.02.02-.01,0-.02.01-.04.01-.46,0-.93,0-1.39,0,0,0-.03,0-.03,0-.01-.03.02-.02.03-.03-.13-.05-.19-.15-.19-.29,0-.18,0-.35,0-.53,0-.17.08-.26.25-.26.43,0,.86,0,1.29,0,.15,0,.23.07.23.22,0,.19,0,.38,0,.57,0,.14-.06.24-.2.29ZM11.47,2.39c0-.14.07-.22.22-.22.2,0,.39,0,.59,0,.15,0,.21.07.22.22,0,.11,0,.22,0,.32,0,.1,0,.21,0,.31,0,.16-.07.22-.22.23-.19,0-.38,0-.57,0-.16,0-.22-.07-.23-.23,0-.21,0-.42,0-.63ZM11.47,4.21c0-.14.07-.21.22-.22.2,0,.4,0,.6,0,.13,0,.2.08.2.2,0,.22,0,.45,0,.67,0,.14-.08.2-.22.21-.2,0-.39,0-.59,0-.15,0-.22-.08-.22-.23,0-.1,0-.21,0-.31,0-.11,0-.21,0-.32ZM11.47,6.04c0-.15.07-.22.22-.23.19,0,.38,0,.57,0,.16,0,.22.07.23.22,0,.2,0,.4,0,.6,0,.12-.04.21-.15.26h0s.06.03.02.03c-.25,0-.5,0-.75,0-.04,0,0-.02.02-.03-.12-.05-.16-.14-.16-.27,0-.2,0-.39,0-.59ZM11.47,8.49c0-.11,0-.22,0-.32,0-.1,0-.21,0-.31,0-.15.07-.22.21-.23.2,0,.4,0,.6,0,.14,0,.21.08.21.21,0,.22,0,.43,0,.65,0,.13-.07.21-.2.22-.21,0-.41,0-.62,0-.13,0-.2-.08-.2-.22Z"/>
        <path class="cls-1" d="M.04,3.93v-.61s0,0,.01,0v.61s0,0-.01,0Z"/>
      </g>
    </g>
  </g>
</svg>